<svg width="70" height="70" viewBox="0 0 70 70" fill="none" xmlns="http://www.w3.org/2000/svg">
<path fill-rule="evenodd" clip-rule="evenodd" d="M31.5344 4.08008C31.5344 4.08008 20.391 17.6981 7.63954 4.08008C6.33086 10.0187 -11.6871 35.5064 31.5344 67.4246C74.3547 35.5064 56.7397 10.0187 55.4277 4.08008C42.6762 17.6981 31.5344 4.08008 31.5344 4.08008Z" fill="#0072BC"/>
<path fill-rule="evenodd" clip-rule="evenodd" d="M8.30651 7.02646C8.21309 7.26205 8.11467 7.50674 8.01207 7.76217C4.3104 16.9701 -4.31739 38.4321 31.53 65.3624C67.1171 38.3759 58.6494 16.9073 55.0145 7.69604C54.9244 7.46706 54.8368 7.24635 54.7534 7.03307C51.0501 10.352 47.1274 11.959 43.0654 11.8127C37.6388 11.6176 33.4742 8.32346 31.5341 6.4536C29.5949 8.32346 25.4286 11.6184 20.0021 11.8127C15.9376 11.959 12.0115 10.3504 8.30651 7.02646ZM31.5383 69.4815L30.635 68.8144C-8.38773 39.9969 1.41612 15.6094 5.10612 6.42879C5.57154 5.27149 5.97273 4.27208 6.10118 3.69261L6.75177 0.743164L8.75774 2.88581C12.326 6.69662 16.0643 8.56482 19.8686 8.43752C25.9266 8.23499 30.303 3.01807 30.3464 2.966L31.5325 1.53012L32.7227 2.966C32.7661 3.01807 37.1417 8.23499 43.1988 8.43752C47.0031 8.56482 50.7406 6.69744 54.3097 2.88581L56.3148 0.743991L56.9662 3.69178C57.093 4.26712 57.4809 5.24834 57.9288 6.38415C61.5504 15.5615 71.1699 39.9407 32.4391 68.8102L31.5383 69.4815Z" fill="white"/>
<path fill-rule="evenodd" clip-rule="evenodd" d="M28.9265 25.1327C28.9282 25.5625 28.9282 26.0444 28.9348 26.5636L11.3898 40.7255L11.3873 42.5301L29.1967 33.9397C29.4595 38.9565 29.8849 44.4661 30.4087 47.7297L23.2238 51.9058L23.2247 52.4274L30.8349 49.7657C30.9992 50.3137 31.1718 50.6229 31.3462 50.6155C31.5238 50.6155 31.6948 50.2997 31.8633 49.7409L39.4627 52.0546V51.5314L32.2979 47.6875C32.8392 44.3966 33.2929 38.8681 33.5732 33.8372L51.3484 41.61L51.3559 39.8047L33.8743 26.4503C33.8818 25.932 33.8851 25.4501 33.891 25.0186C33.9051 18.2666 32.8058 12.819 31.4371 12.8529C30.0684 12.881 28.9415 18.3774 28.9265 25.1327Z" fill="white"/>
<path fill-rule="evenodd" clip-rule="evenodd" d="M68.6901 22.6379C68.6901 27.5646 64.7365 31.5587 59.8599 31.5587C54.9819 31.5587 51.0283 27.5646 51.0283 22.6379C51.0283 17.7111 54.9819 13.717 59.8599 13.717C64.7365 13.717 68.6901 17.7111 68.6901 22.6379Z" fill="#0D47A1"/>
<path fill-rule="evenodd" clip-rule="evenodd" d="M59.8588 14.4055C55.3714 14.4055 51.7223 18.0992 51.7223 22.6389C51.7223 27.1785 55.3714 30.8708 59.8588 30.8708C64.3462 30.8708 67.9953 27.1785 67.9953 22.6389C67.9953 18.0992 64.3462 14.4055 59.8588 14.4055ZM59.8588 32.2486C54.6068 32.2486 50.3322 27.9376 50.3322 22.6389C50.3322 17.3388 54.6068 13.0278 59.8588 13.0278C65.1108 13.0278 69.3855 17.3388 69.3855 22.6389C69.3855 27.9376 65.1108 32.2486 59.8588 32.2486Z" fill="white"/>
<path fill-rule="evenodd" clip-rule="evenodd" d="M66.2667 20.2662L63.8979 17.8511L58.2219 23.6431L55.8197 21.1921L53.4509 23.61L58.2191 28.4761L58.2219 28.4692L58.2289 28.4761L66.2667 20.2662Z" fill="white"/>
</svg>
